<svg width="1280" height="301" viewBox="0 0 1280 301" fill="none" xmlns="http://www.w3.org/2000/svg">
<path fill-rule="evenodd" clip-rule="evenodd" d="M0 222.547L26.6667 182.408C53.3333 143.181 106.667 64.7283 160 38.2731C213.333 11.818 266.667 38.2731 320 64.7283C373.333 91.1834 426.667 116.726 480 136.796C533.333 156.865 586.667 169.637 640 136.796C693.333 103.955 746.667 25.5017 800 5.43229C853.333 -14.6371 906.667 25.5017 960 51.0446C1013.33 77.4997 1066.67 91.1834 1120 83.8854C1173.33 77.4997 1226.67 51.0446 1253.33 38.2731L1280 25.5017V301H1253.33C1226.67 301 1173.33 301 1120 301C1066.67 301 1013.33 301 960 301C906.667 301 853.333 301 800 301C746.667 301 693.333 301 640 301C586.667 301 533.333 301 480 301C426.667 301 373.333 301 320 301C266.667 301 213.333 301 160 301C106.667 301 53.3333 301 26.6667 301H0V222.547Z" fill="url(#paint0_linear_40_8)"/>
<path fill-rule="evenodd" clip-rule="evenodd" d="M-76 0L-29.2917 36C17.4167 72 110.833 144 204.25 144C297.667 144 391.083 72 484.5 66C577.917 60 671.333 120 764.75 138C858.167 156 951.583 132 998.292 120C1092.22 126.072 1143.75 130.438 1195 172.5C1256.88 226.14 1277.92 251.426 1279.5 288H1045H998.292C951.583 288 858.167 288 764.75 288C671.333 288 577.917 288 484.5 288C391.083 288 297.667 288 204.25 288C110.833 288 17.4167 288 -29.2917 288H-76V0Z" fill="url(#paint1_linear_40_8)"/>
<defs>
<linearGradient id="paint0_linear_40_8" x1="597.333" y1="-300.129" x2="617.929" y2="327.006" gradientUnits="userSpaceOnUse">
<stop stop-color="#D04900" stop-opacity="0.67"/>
<stop offset="1" stop-color="#04080F" stop-opacity="0.65"/>
</linearGradient>
<linearGradient id="paint1_linear_40_8" x1="590.5" y1="-215.5" x2="601.75" y2="288" gradientUnits="userSpaceOnUse">
<stop stop-color="#D04900" stop-opacity="0.78"/>
<stop offset="1" stop-color="#04080F" stop-opacity="0.64"/>
</linearGradient>
</defs>
</svg>
